<svg xmlns="http://www.w3.org/2000/svg" viewBox="0 0 120 136" role="img" aria-label="유러피언컵 트로피">
  <title>유러피언컵 트로피</title>
  <g fill="#d9b26a">
    <path d="M34 14h52c2 0 4 2 4 4 0 30-8 50-24 57v19h14v10H40v-10h14V75C38 68 30 48 30 18c0-2 2-4 4-4Z"/>
    <path d="M28 20c-12 0-20 9-20 22 0 16 9 27 24 31l3-11c-10-3-16-10-16-20 0-6 3-11 9-11v-11Z"/>
    <path d="M92 20c12 0 20 9 20 22 0 16-9 27-24 31l-3-11c10-3 16-10 16-20 0-6-3-11-9-11V20Z"/>
    <rect x="26" y="112" width="68" height="14" rx="3"/>
  </g>
</svg>
