<?xml version="1.0" encoding="UTF-8" standalone="no"?>
<svg
   xmlns:dc="http://purl.org/dc/elements/1.1/"
   xmlns:cc="http://creativecommons.org/ns#"
   xmlns:rdf="http://www.w3.org/1999/02/22-rdf-syntax-ns#"
   xmlns:svg="http://www.w3.org/2000/svg"
   xmlns="http://www.w3.org/2000/svg"
   xmlns:sodipodi="http://sodipodi.sourceforge.net/DTD/sodipodi-0.dtd"
   xmlns:inkscape="http://www.inkscape.org/namespaces/inkscape"
   inkscape:version="1.0 (4035a4f, 2020-05-01)"
   sodipodi:docname="Brescia_Calcio_-_Logo_2017.svg"
   xml:space="preserve"
   style="enable-background:new 0 0 8022.8 9902.3;"
   viewBox="0 0 8022.8 9902.3"
   y="0px"
   x="0px"
   id="Livello_1"
   version="1.1"><metadata
   id="metadata1713"><rdf:RDF><cc:Work
       rdf:about=""><dc:format>image/svg+xml</dc:format><dc:type
         rdf:resource="http://purl.org/dc/dcmitype/StillImage" /></cc:Work></rdf:RDF></metadata><defs
   id="defs1711" /><sodipodi:namedview
   inkscape:current-layer="Livello_1"
   inkscape:window-maximized="1"
   inkscape:window-y="25"
   inkscape:window-x="0"
   inkscape:cy="4951.1499"
   inkscape:cx="4011.3999"
   inkscape:zoom="0.059166526"
   showgrid="false"
   id="namedview1709"
   inkscape:window-height="793"
   inkscape:window-width="1440"
   inkscape:pageshadow="2"
   inkscape:pageopacity="0"
   guidetolerance="10"
   gridtolerance="10"
   objecttolerance="10"
   borderopacity="1"
   bordercolor="#666666"
   pagecolor="#ffffff" />
<style
   id="style1690"
   type="text/css">
	.st0{fill:#FFFFFF;}
	.st1{fill:#075DA8;}
	.st2{fill:#CCA738;}
</style>
<g
   id="g1706">
	<path
   id="path1692"
   d="M4011.4,9902.3c2410.5-1524.1,4011.4-4212.7,4011.4-7275.4c0-663.1-75.2-1308.7-217.3-1928.7   C6635.4,247.6,5364.6,0,4035.6,0c-1349,0-2638.3,255.1-3822.9,718.7C73.8,1332.5,0,1971,0,2626.9   C0,5689.7,1600.9,8378.2,4011.4,9902.3"
   class="st0" />
	<path
   style="fill:#005dac;fill-opacity:1"
   id="path1694"
   d="M3561.8,3690c-105.7-2-269.1,5.9-433.2,14.2c-164.1,8.2-327.6,7.8-433.2,2c0,0-58,5.5,7.6,35.4   c65.7,29.9,301,121.7,394.4,170.7c93.3,48.9,60.6-111.5,468.3-173C3641.8,3727.7,3667.2,3691.9,3561.8,3690 M6496.2,2517.5   c-12.2-29.2-38.7-39.9,54.7-16.8c93.3,23.1,390,74.9,458.8,285.1c68.8,210.1-60.4,346-349.8,389c-584.5,86.7-1316.5-287.4-2082-255   c-655.3,27.9-1018.5,220.6-1164.8,292.9c-146.2,72.2-217.8,153.5-119.6,126.7c98.1-26.9,852.5-234.5,1490.5-126.7   c771,130,1499.2,648.9,2030.5,548.9c583.9-109.9,746.8-753,798.5-1155.3c-0.2-34-0.7-68-1.2-101.9   c-89.9-22.8-1812.3-451.8-3002.2-209.3c-1032.8,210.4-1608.9,773.9-1742.9,946.1c-133.8,172.1-35.1,103.3,49.5,60.8   c589.2-295.3,1015.4-500.2,1700.6-550.2c873.4-63.6,1419.1,172.5,1762.2,130C6669.2,2846.1,6508.4,2546.8,6496.2,2517.5    M3990.1,9380.9c-28-206.1-40.3-542,78.1-919.8c175.8-561.4,497.1-701.1,740.2-1350c17.6-47.1,32.8-95.3,46.1-144.4l-821.3,328.1   L3626.1,7130c-63.1,124.4-118.9,244.7-154.3,360.7C3146.4,8556.9,3755.7,9154.6,3990.1,9380.9 M6779.6,6230.9   c6.7-13.7,13.6-27.5,20.3-41.2l-667.9,266.7c41.8,114.8,89.7,191.6,176.5,208.3C6494,6700.5,6641.1,6477.2,6779.6,6230.9    M5698.7,5495.1l1003.7-399.9c-120.4-0.5-246.3-20.9-376-59.2c-392.6-116.1-1138.6-527.3-1525-714.2   c-159.4-77.1-345.6-206.1-370.1-103.1c-24.3,103-64.7,158.7-145,241.3c-53.3,54.9-212.9,189.7-36.6,233.2   c176.2,43.3,866.9,252.1,1263.3,607.3C5584.1,5363.8,5645.2,5429.1,5698.7,5495.1 M5100.5,5733.5l393-156.6   c-36.1-50.5-76.7-99.5-122.7-146.6c-466.2-477.2-1250.8-586.9-1345.4-601.8c-56.8-9.1-111.3,18.2,7.8,78.7   C4560.9,5174,4897.1,5449.4,5100.5,5733.5 M4006.2,5776.2c15.5,117.7,38.3,273.2,20.1,385.2l11.9-4.5l738.1-294.2   c-77.2-169.8-187.3-323.1-332.3-445.7c-261.3-246.9-524.8-348.8-587.1-371.7c-62.4-22.8-135.8-36.6-86.9,33.9   C3818.9,5149.7,3954.4,5386.3,4006.2,5776.2 M3752.6,3433.7c116.2,6.5,455.5,6.1,770.7,52.7c315.5,46.7,533.4,111.5,546.2,236   c19,184.4-293.4,245.4-508,238.4c-100.9-3.3,71.1,74.4,253.5,168.2c1150.7,592,1625.9,640.6,2053.6,540.7   c395.3-92.2,560.4-419.6,634.3-697.3c38.8-235.1,67.8-473.5,86.1-714.8c0.2-2.4,0.4-4.9,0.6-7.5c2.1-28.3-2.1-29.7-7.5,1.8   c-42.9,247.1-147.1,635.7-327.4,787.5c-724.1,610-1391-398.5-2481.9-637.4c-431-94.4-853.8-45.1-954.3-26.8   C3700.6,3397.2,3636.2,3427.1,3752.6,3433.7 M4038.6,9394.4c926-633,1715.5-1451.2,2315-2401.2c23.9-37.9,14.1-39.4-14.6-5   c-89.8,107.5-180.6,191.8-264.7,230c-334.8,152.2-287.3-169.8-300.8-618.6l-410.8,164.1c-2.6,29.7-5.6,59.6-9.4,89.6   c-92.2,717.4-550.9,1073-959.8,1618.8C4133.3,8819.4,4058.7,9178.7,4038.6,9394.4 M1209.2,6160.3   c573.4,1197.6,1429.3,2233.8,2481.3,3023c16.4,12.4,24.3,12.8,11.7,0.5c-301-295.8-624.8-732.8-730.7-1335.3   c-86-489.2-54.2-784.4-12.1-989.5L1209.2,6160.3z M3508.9,2454.2c-1106,271.1-2123.7,766.5-3002.3,1435.5   c49.5,320.2,118.3,634,203.8,940.8c445.3,179.6,1812.3,730.7,1893.9,762.5c97.6,37.9,205.4,41,276.5,2.7   c105.7-57,111.2-197.9,110.1-351.7c-1.1-153.9-17.9-247.4,15.3-265.5c33.2-18,155.1,61.1,286.4,248.3   c131.4,187.2,200.9,409.5,190.9,695.6c-17,268.2-150.8,342.2-308.8,323.6c-179-20.9-310.1-113.7-386-319.7   c-30.2-81.8-48.8-301-111.2-35.2c-38.3,163.2-132.9,176.3-260.2,122c-135.3-57.5-180.5-160.4-227.8-284.6   c-43.3-113.9-65.1-181.3-92.1-28c-29.8,169-23.7,478.4,81.4,529.5c105.1,51.1,425,194.3,726.6,298.3   c301.4,103.9,506,157.2,642.4,86.7c185.8-96,266.9-496.5,117.2-1027.3c-148.8-527.9-618.8-848.4-873.5-843.3   c-191.6,3.8-251,269.1-265.7,450c-8.1,100.3-116.6-57.8-211.4-233.1c-75-138.6-227.8-206-385-233.2   c-148.6-25.7-86.9,157-59.6,235.9c27.2,78.9-41.4,27.4-81.4-13.6c-40.1-41-181.4-216.8-267.7-376.3   c-86.2-159.7-169.3-478.6-134.9-505.8c34.4-27,136.3,84.5,197.3,156.7c60.9,72.2,165.6,255.3,206.3,286.6   c40.6,31.3,43.4-16.9,37.8-104.4c-5-79.5-10.8-131.6,55.9-186c66.8-54.3,235.5-59.2,404.6-78.4c170.8-19.5,269.3-112.8,78.2-108.9   c-191.1,3.8-307.3,37.9-559.8,4.5c-252.5-33.5-367.1-69-397.1-99.7c-30-30.7,122.3-99.6,315.4-137.1   c143-27.8,442.3-85.5,552.4-106.6c38.4-7.3,42.5-20.8,13.3-32.8c-26.8-10.9-61.5-24.3-96.4-35.5c-72.8-23.5-17.2-68.8,145.7-137   c163-68.3,270.9-100.9,270.9-100.9S2948.4,2867.1,3508.9,2454.2"
   class="st1" />
	<path
   style="fill:#cdab34;fill-opacity:1"
   id="path1696"
   d="M1178.1,2563c27.5-13.3,53.5-29,77.6-46.4c24.2-17.5,46.5-36.8,66.8-57.7c20.2-20.8,38.4-43.1,54.6-66.6   c16-23.5,29.9-48.1,41.2-73.7c11.4-25.4,20.4-51.9,26.8-78.8c6.5-27,10.3-54.6,11.4-82.3c1.2-32.8-1.8-61.9-9.2-87   c-7.2-25.1-18.6-45.9-34-62.1c-15.5-16.4-35-28.1-58.2-34.9c-23.2-6.7-50.4-8.4-81.1-4.6c-30.8,3.8-65.2,13.2-102.9,28.9   c-28.5,11.9-54.2,22.6-78.1,32.8c-23.9,10.2-45.9,19.7-67.4,29c-21.5,9.4-42.5,18.6-63.9,28c-21.4,9.5-43.3,19.3-66.9,30.1   c-23.5,10.6-48.7,22.1-76.7,35.1c-1.7,34.4-3.2,66.3-4.4,96.4c-1.2,30.2-2.1,58.7-2.9,86.3c-0.9,27.4-1.5,53.8-2,80   c-0.6,26.1-1,51.5-1.3,77.4c-0.2,25.8-0.5,52-0.5,79.3c-0.1,27.2,0,55.4,0.2,85.4c0.2,29.9,0.6,61.5,1.3,95.5   c29.1-15.9,55.4-30.1,80.1-43.1c24.6-13.1,47.6-25.2,70-36.8c22.5-11.6,44.3-22.9,66.9-34.4c22.5-11.5,45.6-23.1,70.6-35.6   C1121.2,2590.8,1148.1,2577.6,1178.1,2563 M1163.1,1647.6c33.3-12.5,64.4-28.6,92.6-47.3c28.1-18.8,53.3-40.2,74.7-63.7   c21.5-23.6,39.4-49.1,52.9-75.9c13.5-26.9,22.4-54.9,26.3-83.8c5.1-38.5,1.6-69.6-10.3-92.6c-11.7-23-31.8-37.9-59.5-43.7   c-27.8-5.6-63.2-2.3-105.9,11.7c-34.1,11.1-64,21.2-91.5,30.5c-27.7,9.4-53.1,18.1-78.5,27c-25.4,8.8-50.9,17.9-78.3,27.6   c-27.4,9.8-56.9,20.6-90.4,33c-4.8,31.9-8.8,60.8-12.4,87.7c-3.7,26.9-7,52-10,76.5c-3.1,24.5-6,48.3-8.8,72.8   c-2.9,24.6-5.7,49.8-8.7,76.9c-2.9,27.2-5.9,56.4-9.1,88.8c31.4-13.1,59-24.5,84.5-34.9c25.7-10.4,49.4-19.9,73.2-29.4   c23.7-9.4,47.6-18.7,73.4-28.8C1103.2,1670.2,1131.1,1659.5,1163.1,1647.6 M554.3,1131.6c33.5-12.6,65.2-24.3,95.7-35.3   c30.3-11,59.3-21.4,87.2-31.3c28-9.9,55.1-19.3,81.5-28.4c26.4-9.1,52.2-17.7,77.9-26.3c25.7-8.6,51.1-17,77-25.3   c25.7-8.4,51.8-16.8,78.4-25.2c26.8-8.3,54.1-16.9,82.7-25.7c28.5-8.7,58-17.5,89.2-26.8c31.2-9.2,64-18.7,98.7-28.5   c41.8-12,81.2-20.1,118.2-25c36.8-4.8,71.1-6.2,102.9-4.8c31.7,1.6,60.8,6.1,87.5,13.2c26.5,7.1,50.6,16.9,72.2,29   c21.4,12.1,40.2,26.7,56.5,43.2c16.4,16.6,30.1,35.2,41.2,55.8c11.3,20.5,19.8,42.9,25.8,67c6,24.1,9.4,49.8,10.3,77.1   c0.9,27.3-1,55.9-5.3,86c-4.3,29.6-11.4,58.6-21,86.9c-9.5,28.3-21.8,55.8-36.5,82.6c-14.6,26.8-31.6,52.9-50.8,78.2   c-19.2,25.2-40.6,49.7-64,73.3c-23.4,23.6-48.7,46.4-75.9,68c-27.2,21.8-86.6,62.1-86.6,62.1c0.4,1,75.2-5.7,108.1-3.5   c33,2.2,63,7.7,89.9,16.1c26.9,8.6,50.9,20.1,71.9,34.4c20.9,14.3,38.9,31.6,54.1,51.4c15,19.7,27.3,42.2,36.7,67.2   c9.3,25,15.9,52.5,19.7,82.6c3.8,29.9,4.9,62.3,3.2,96.8c-1.2,26.4-3.8,52.7-7.8,79.2c-4,26.3-9.4,52.6-16,78.8   c-6.7,26.1-14.8,52.1-24.1,78.1c-9.3,25.9-19.9,51.7-31.8,77.3c-11.9,25.6-25,50.9-39.3,76c-14.3,25.2-29.9,49.9-46.5,74.5   c-16.8,24.6-34.6,48.8-53.6,72.7c-19.1,23.9-39.1,47.3-60.4,70.5c-21.2,23.1-43.6,45.8-66.9,67.9c-23.4,22.1-47.8,43.7-73.3,64.8   c-25.4,20.9-52,41.5-79.4,61.2c-27.5,19.8-55.9,38.9-85.4,57.3c-29.4,18.3-59.7,35.8-90.9,52.5c-31.6,16.9-61.3,32.9-89.7,48.6   c-28.5,15.5-55.7,30.6-81.7,45.3c-26.1,14.7-51.1,29-75.5,43.1c-24.5,13.9-48.1,27.8-71.4,41.5c-23.4,13.7-46.2,27.4-69.1,41.2   c-22.9,13.7-45.8,27.5-68.8,41.7c-23,14.1-46.4,28.5-70.1,43.5c-23.9,14.8-48.2,30.2-73.3,46.4c-25.2,16.1-51.1,33-78.2,50.8   c-27,17.7-55.2,36.3-84.7,56.3c-3.1-37.3-5.9-73.9-8.4-109.7c-2.4-36-4.7-71.2-6.7-105.8c-2-34.6-3.8-68.8-5.3-102.3   c-1.6-33.5-2.9-66.6-4-99c-1.1-32.5-2-64.6-2.7-96.2c-0.7-31.7-1.2-62.9-1.6-93.7c-0.4-30.8-0.6-61.3-0.6-91.5   c-0.1-30.2,0-60.2,0.4-90c0.2-29.9,0.6-59.3,1.2-88.7c0.5-29.2,1.2-58.4,2.1-87.2c0.9-28.9,2-57.6,3.1-86.2   c1.1-28.6,2.3-57.1,3.8-85.6c1.5-28.5,3.1-57,4.7-85.5c1.7-28.4,3.5-56.9,5.6-85.5c2-28.6,4.2-57.3,6.5-86.1   c2.2-28.7,4.8-57.9,7.3-87c2.7-29.2,5.5-58.6,8.4-88.3c3.1-29.7,6.2-59.7,9.7-90c3.4-30.3,7-60.9,10.8-92   c3.8-31.1,7.8-62.5,12.1-94.4c4.3-31.9,8.8-64.2,13.7-97.1c4.8-32.9,9.8-66.3,15.2-100.3c5.4-33.9,11.1-68.5,17.1-103.6   C541.2,1203.9,547.5,1168.1,554.3,1131.6"
   class="st2" />
	<path
   style="fill:#cdab34;fill-opacity:1"
   id="path1698"
   d="M2044.2,2168.6c28.4-24.6,53.9-46.4,78-66.5c24-20.3,46.2-38.9,68.1-56.8c21.9-18,43.3-35.4,65.2-53.1   c22-17.6,44.8-35.6,69.2-54.8c24.5-19.2,50.8-39.5,80.1-61.9c17.3,20.8,36,39.8,56.4,56.2c20.6,16.5,42.8,30.6,67.5,41.6   c24.7,11,51.9,19,81.7,23.4c30.1,4.5,62.9,5.4,99.3,2.3c36.3-3.1,76.1-10.2,120.1-21.5c36.8-9.5,71.3-21,102.9-34.3   c31.6-13.1,60.2-27.8,85.5-43.7c25.3-15.8,47.2-32.8,65.5-50.6c18.2-17.9,32.5-36.5,42.7-55.5c10.2-19.1,16.1-38.7,17.4-58.4   c1.6-23.6-2-43.2-10-59.7c-8.2-16.5-21.2-30-38.4-41.2c-17.3-11.4-38.8-20.5-64.4-28.3c-25.6-7.7-55.1-14.1-88.1-19.8   c-33-5.8-69.6-11-109.3-16.5c-21.8-2.9-38-5-54.2-7.2c-16.3-2.1-32.4-4.2-54.1-7c-38.9-5-76-10.6-111-17.4   c-35-6.9-67.9-14.7-98.6-24c-30.6-9.4-59-20.2-84.9-32.8c-25.8-12.6-49.2-26.9-69.7-43.5c-20.7-16.5-38.5-35.2-53.3-56.4   c-14.8-21.3-26.7-44.9-35.2-71.3c-8.7-26.4-13.9-55.5-15.7-87.7c-1.7-32.2,0.1-67.3,5.9-105.6c3.8-25.6,9.7-51.1,17.6-76.3   c8-25.1,17.7-49.9,29.5-74.4c11.7-24.3,25.3-48.2,40.6-71.4s32.2-45.8,50.9-67.5c18.6-21.8,38.9-42.7,60.6-62.6   c21.8-19.9,45-38.9,69.6-56.9c24.6-17.9,50.5-34.6,77.8-50c27.2-15.5,55.8-29.9,85.4-42.7c29.6-12.9,60.6-24.4,92.4-34.4   c31.9-10,64.8-18.6,98.7-25.4c33.9-7,68.9-12.2,104.6-15.9c40.1-4.2,78.2-6.2,114.6-6.5c36.3-0.1,70.8,1.7,103.6,5.5   c32.8,3.8,63.7,9.5,93.1,17.4c29.2,7.8,56.9,17.7,82.8,29.7c25.8,12,50.2,26.1,72.8,42.3c22.8,16.3,43.8,34.8,63.5,55.4   c19.6,20.7,37.8,43.7,54.6,69c-30.5,14.8-57.7,28.4-83.2,41.1c-25.6,12.8-49.2,24.8-72.2,36.8c-23,11.9-45.4,23.6-68.4,35.7   c-23,12.2-46.6,24.8-71.9,38.7s-52.5,28.7-82.6,45.6c-15.3-23.6-31.4-43.4-49.1-59.6c-17.6-16-36.7-28.5-58-37.4   c-21.2-8.9-44.4-14.4-70.3-16.6c-25.9-2.2-54.6-1.1-86.3,3.2c-32.5,4.4-62.8,12.6-90,23.7c-27.3,11.3-51.5,25.4-72.1,42   c-20.7,16.4-37.7,35.1-50.4,55.1c-12.7,20.1-20.9,41.3-24.3,63.1c-4,26.8-2.3,48.8,5.4,67.2c7.8,18.3,21.5,33,41.5,45.3   c19.9,12.4,46.1,22.3,78.7,31.1c32.7,8.9,71.8,16.8,117.7,25.1c21.4,3.8,37.6,6.6,53.6,9.5c16.1,2.8,32.3,5.7,53.9,9.5   c40.7,7.3,79.5,15,116.2,23.5c36.8,8.4,71.6,17.4,104.1,27.3c32.5,9.8,63,20.4,91.1,32.1c28.1,11.6,53.9,24.2,77.4,37.9   c23.5,13.8,44.7,28.7,63.4,45c18.6,16.3,34.9,33.9,48.6,53.1c13.6,19.2,24.7,39.9,33.2,62.5c8.6,22.5,14.4,47,17.6,73.2   c3.3,26.3,3.7,54.4,1.6,84.9c-2,26.9-6.4,53-13.2,78.4c-6.7,25.4-15.9,50.2-27.3,74.1c-11.4,24-25,47.3-40.6,70.1   c-15.7,22.6-33.4,44.7-53,66.1c-19.6,21.4-41.1,42.1-64.4,62.1s-48.2,39.5-74.8,58.2c-26.4,18.8-54.7,36.9-84.2,54.3   c-29.5,17.5-60.4,34.3-92.6,50.3c-32.2,16-65.6,31.2-100.1,45.9c-34.5,14.4-70.1,28.3-106.7,41.2c-36.6,13-74,25.1-112.2,36.3   c-45.6,13.5-89.3,24.7-131.1,33.9c-41.8,9.3-81.7,16.5-119.8,21.5c-38,5.1-74.3,8.2-108.6,9.2c-34.5,1-67-0.1-97.9-3.2   c-30.8-2.9-59.8-8-87.1-14.8c-27.3-6.8-52.9-15.7-76.6-26.2c-23.7-10.5-45.8-22.9-66.1-36.8c-20.2-13.9-38.8-29.5-55.5-46.6   C2072.6,2207.1,2057.6,2188.6,2044.2,2168.6"
   class="st2" />
	<path
   style="fill:#cdab34;fill-opacity:1"
   id="path1700"
   d="M3999.2,505.1c37.8,0,74.4,0.1,109.7,0.5c35.5,0.2,69.7,0.7,103,1.5c33.3,0.6,65.7,1.5,97.3,2.3   c31.6,1,62.3,2.1,92.5,3.2c30.1,1.2,59.7,2.4,88.8,3.9c29,1.3,57.7,2.8,86.1,4.4c28.4,1.6,56.4,3.3,84.4,5.1   c28,1.8,55.8,3.8,83.8,5.7c27.9,2.1,55.9,4.3,84,6.6c28.1,2.3,56.5,4.8,85.3,7.3c28.8,2.6,58,5.4,87.6,8.3   c29.7,2.9,59.9,6.1,90.9,9.5c30.8,3.3,62.5,6.9,94.9,10.8c32.5,3.9,65.8,8,100.2,12.4c34.3,4.5,69.6,9.3,106.1,14.4   c-2.9,31.1-5.3,57-7.5,81.2c-2.1,24.3-4,47-6.1,71.3c-2.1,24.3-4.3,50.5-6.7,82.1c-34.7-4-68-7.7-100-11   c-31.9-3.3-62.5-6.4-92.2-9.2c-29.7-2.8-58.4-5.4-86.4-7.8c-28-2.3-55.4-4.7-82.2-6.7c-26.9-2.1-53.5-3.9-79.8-5.7   c-26.3-1.8-52.5-3.5-78.9-5.1c-26.4-1.7-53-3.2-79.9-4.6c-27-1.4-54.6-2.7-82.7-4c-28.1-1.2-57.1-2.3-87.1-3.4   c-30-1.1-60.9-2.1-93.3-2.9c-32.3-0.9-65.9-1.6-101.2-2.1c-5.6,38.1-10.4,72.4-14.8,104.6c-4.4,32.2-8.3,62.1-12,91.4   c-3.8,29.2-7.3,57.7-10.8,87.1c-3.5,29.4-7.1,59.6-10.8,92.2c-3.7,32.5-7.3,67.5-11.4,106.6c36.1-1.2,70.3-2.3,103.1-3.1   c32.8-0.7,64.1-1.3,94.4-1.8c30.3-0.4,59.6-0.6,88.2-0.7c28.5-0.1,56.3-0.1,83.7,0c27.5,0.1,54.6,0.4,81.7,0.7   c27,0.4,54.1,0.9,81.6,1.5c27.4,0.5,55.3,1.2,83.8,2.1c28.6,0.9,57.9,2,88.2,3.2c30.3,1.2,61.8,2.6,94.7,4.2   c32.9,1.7,67.3,3.5,103.5,5.7c-2.2,33-3.9,60.6-5.4,86.3c-1.6,25.8-3.1,49.8-4.5,75.6c-1.3,25.8-2.8,53.6-4.6,86.6   c-36.7-1.3-71.6-2.3-105-3.2c-33.4-0.9-65.3-1.5-96-2c-30.8-0.5-60.4-0.7-89.4-0.9c-28.9-0.2-57-0.2-84.9-0.1   c-27.8,0.1-55.2,0.4-82.6,0.7c-27.4,0.4-54.7,0.9-82.5,1.5c-27.8,0.6-55.8,1.3-84.5,2.2c-28.9,1-58.4,2-88.9,3.2   c-30.6,1.2-62.1,2.7-95.3,4.4c-33,1.7-67.5,3.7-103.7,5.9c-2.9,36.1-5.3,68.4-7.5,98.6c-2.1,30.2-4,58.2-5.8,85.5   c-1.7,27.3-3.3,53.8-4.9,81c-1.6,27.3-3.1,55.2-4.7,85.1c-1.5,30.1-3.1,62.3-4.5,97.9c-37.6,4-71.4,8-102.9,11.7   c-31.6,3.8-60.8,7.5-89.2,11.1c-28.4,3.7-55.9,7.5-84.3,11.4c-28.3,4-57.4,8.3-88.6,13c-31.1,4.8-64.5,9.9-101.4,16   c1.3-38.4,2.8-75.6,4.5-111.8c1.7-36.3,3.4-71.6,5.4-105.9c2-34.4,3.9-67.8,6.1-100.7c2.1-32.8,4.3-64.8,6.6-96.3   c2.3-31.6,4.8-62.5,7.3-93c2.4-30.5,5.1-60.8,7.8-90.6c2.7-29.7,5.5-59.2,8.4-88.5c2.9-29.2,6-58.4,9.1-87.3   c3.2-28.9,6.5-57.9,9.9-86.9c3.3-29,6.9-58.2,10.6-87.6c3.7-29.4,7.6-58.8,11.6-88.8c4-30.1,8.3-60.4,12.7-91.3   c4.5-31,9.2-62.4,14.1-94.4c5-32.1,10.3-64.7,15.8-98.4c5.5-33.5,11.3-67.8,17.5-103C3985.7,578.5,3992.2,542.3,3999.2,505.1"
   class="st2" />
	<path
   style="fill:#cdab34;fill-opacity:1"
   id="path1702"
   d="M5552.2,1274.3c1.2-25.8,4.6-50.9,10.3-75.1c5.6-24.2,13.3-47.7,23-70.2c9.8-22.5,21.4-44.2,34.9-64.8   c13.6-20.7,28.9-40.4,45.8-59c17-18.7,35.6-36.2,55.8-52.7c20.1-16.4,41.6-31.8,64.7-45.9c23-14.2,47.3-27,72.9-38.8   c25.7-11.6,52.5-22,80.4-31.2c28-9.1,57-16.9,87.1-23.4c30.1-6.4,61-11.5,93-15.3c31.9-3.7,64.8-6,98.4-6.8   c33.6-1,68-0.4,103.1,1.6c35.1,2,71,5.4,107.4,10.3c36.5,4.8,73.4,11.1,111.1,19c37.6,7.8,75.9,17.1,114.5,28   c33.3,9.3,65.7,19.1,97.3,29.5c31.6,10.4,62.3,21.3,92.1,32.7c30,11.5,59.1,23.4,87.5,35.7c28.4,12.5,55.9,25.3,82.8,38.7   c26.9,13.5,53.2,27.3,78.7,41.6c25.6,14.3,50.5,29.1,74.7,44.4c24.2,15.3,47.7,31.1,70.7,47.2c23,16.3,45.4,32.9,67.2,50   c21.8,17.1,43.1,34.7,63.7,52.9c20.6,18.1,40.6,36.7,60.2,55.7c19.6,19,38.5,38.5,57,58.5c-29.9,1.4-56.2,2.8-80.6,4.3   c-24.5,1.3-47.2,2.8-70.1,4.4c-22.9,1.7-45.9,3.4-71,5.5c-25.1,2-52.4,4.4-83.6,7.3c-15-16.8-31.6-33.3-49.4-49.7   c-17.7-16.4-36.8-32.5-57.4-48.4c-20.4-15.8-42.3-31.2-65.5-46.2c-23.1-15-47.6-29.6-73.4-43.4c-25.7-13.9-52.8-27.3-81.4-39.8   c-28.5-12.6-58.2-24.2-89.6-35.1c-31.2-10.8-63.9-20.7-97.9-29.5c-41.7-10.6-82-18.7-120.6-24.2c-38.5-5.5-75.6-8.4-110.8-8.9   c-35.2-0.4-68.6,1.6-100.2,5.9c-31.4,4.3-61,10.9-88.5,19.7c-27.4,8.7-52.7,19.7-75.6,32.7c-23,13-43.7,27.9-61.7,44.7   c-18.1,16.8-33.5,35.4-46.2,55.5c-12.6,20.3-22.4,42.2-29.2,65.6c-6.7,23.4-10.4,48.1-10.6,74.1c-0.4,23.5,2,46.9,7,69.9   c5,23,12.6,45.8,22.6,68c10.2,22.1,22.8,43.9,37.6,65.1c14.9,21,32.2,41.5,51.6,61.2c19.5,19.7,41.2,38.7,65,56.6   c23.6,18.1,49.4,35.2,77.1,51.5c27.6,16.3,57.3,31.6,88.5,45.8c31.3,14.3,64.1,27.5,98.6,39.6c34.5,12.2,70.6,23.2,108,33.2   c37.4,9.9,76.2,18.7,116.1,26.3c47.6,9.1,91.5,15.7,132.1,20.1c40.6,4.5,78.1,6.8,112.6,7.3c34.6,0.4,66.4-1.2,95.8-4.4   c29.4-3.3,56.4-8.3,81.4-14.7c25.1-6.5,48.2-14.3,69.7-23.4c21.5-9.1,41.5-19.3,60.3-30.5c28,17.6,53.3,33.6,76.8,48.6   c23.5,14.9,45.4,28.9,66.7,42.5c21.2,13.6,41.8,26.9,63.1,40.6c21.3,13.7,43.1,27.9,66.4,43.2c23.5,15.3,48.6,31.7,76.5,50   c-17.4,9.9-36,19-55.7,27.3c-19.8,8.3-40.9,15.7-63.1,22.3c-22.3,6.7-45.6,12.5-70.5,17.4c-24.8,5-50.8,9.2-78.2,12.4   c-27.3,3.2-55.9,5.6-85.8,7.1c-29.8,1.6-60.9,2.1-93.3,1.8c-32.4-0.2-66.1-1.4-101.1-3.3c-35-2.1-71.2-5-108.9-8.8   c-37.6-3.8-76.5-8.6-116.7-14.2c-40.3-5.6-81.8-12.1-124.7-19.6c-39.9-7-79.4-14.6-118.3-22.9c-39-8.2-77.4-17.1-115.2-26.7   c-37.8-9.5-75-19.6-111.5-30.5c-36.5-10.8-72.2-22.1-107-34.3c-34.9-12-68.8-24.7-101.8-38c-33-13.2-65.1-27.2-96-41.7   c-31-14.4-60.8-29.6-89.6-45.4c-28.6-15.8-56.2-32-82.3-49.1c-26.2-17-51.1-34.5-74.5-52.6c-23.5-18.2-45.5-36.9-66.1-56.2   c-20.6-19.3-39.6-39.1-57-59.6c-17.4-20.3-33-41.2-47.1-62.5c-14.1-21.4-26.4-43.3-36.8-65.7c-10.5-22.4-19.2-45.1-26.1-68.3   c-6.7-23.1-11.6-46.6-14.6-70.3C5551.9,1322.5,5551.1,1298.4,5552.2,1274.3"
   class="st2" />
	<path
   style="fill:#cdab34;fill-opacity:1"
   id="path1704"
   d="M6825.6,5899l125.9-50.4l246.6-670.4l-234.9,94l-45.3,123.3l108.9-43.5L6825.6,5899z M6476.4,6038.7l126-50.4   l246.5-670.4l-234.9,94l-45.3,123.3l108.9-43.7L6476.4,6038.7z M6168.8,5887.8c-70.6,28.1-85.6-13.7-62.8-75.9   c22.4-61.2,79.9-130.4,148.6-157.8c66.1-26.4,86.3,11.6,63.7,72.8C6295,5791,6234.8,5861.3,6168.8,5887.8 M5927.3,6258.5   l138.4-55.4l255.9-325.2c57.5-73.4,104-144.2,127.6-208.3c47.6-129.2-11.4-194.6-148.9-139.7c-140.1,56.2-274.3,201.5-323,333.6   c-49.2,134.1,5.4,190.4,118.8,145c14.3-5.7,43.4-20.7,61.5-34.6c0,0-42.7,45.6-82.9,97L5927.3,6258.5z M5571.1,6401l125.9-50.4   l246.5-670.4l-234.8,94l-45.3,123.3l108.9-43.7L5571.1,6401z"
   class="st2" />
</g>
</svg>
